<svg enable-background="new 0 0 286 300" viewBox="0 0 286 300" xmlns="http://www.w3.org/2000/svg"><g fill="#fff" transform="matrix(.1 0 0 -.1 0 300)"><path d="m1251 2989c-110-21-209-66-266-120l-30-28-55 27c-48 24-67 27-145 26-71 0-101-5-140-23-95-42-205-113-242-156-38-42-39-42-118-47-169-10-233-75-251-256-6-58-4-68 29-135 22-45 57-92 92-127 52-51 59-55 107-56l51-2 77-149c43-81 134-258 204-393s144-276 166-315c21-38 53-99 71-135 19-36 51-96 73-135 35-62 191-346 281-510 18-33 49-87 68-120 20-33 49-82 64-108 64-111 124-193 152-208 24-13 42-14 93-7 76 11 73 7 208 221 111 174 162 276 222 442 22 61 106 241 188 400 82 160 173 346 204 415 30 69 73 162 95 206 47 97 107 269 117 337 3 26 21 82 40 124 28 65 37 78 66 88 50 17 62 26 103 75 56 67 85 135 85 202 0 96-38 164-126 224-49 34-61 38-136 42-80 5-85 6-128 44-56 50-181 113-263 135-72 18-223 13-297-10-38-11-93-42-146-81-8-7-24-1-48 18-112 85-310 126-465 95zm268-128c73-23 149-69 179-111 16-21 31-30 51-30 33 0 48 14 53 50 7 52 168 97 315 88 55-4 88-13 147-41 128-61 176-110 176-180 0-33 24-51 55-43 26 7 38 27 49 79 8 33 41 36 101 8 104-48 141-142 94-236-27-55-109-133-148-141-49-11-53-14-48-34 3-13-3-24-19-35-37-24-63-18-103 24-20 22-64 56-98 76-35 20-93 67-131 104-37 38-86 78-109 90-50 25-145 28-183 6-89-51-161-61-180-25-14 25-34 26-51 0-20-29-41-11-48 42-5 34-10 43-26 43-11 0-24-10-30-22-18-42-35-27-35 31 0 67-7 86-31 86-23 0-39-36-39-86 0-57-25-36-26 22-2 74-3 74-23 74-22 0-41-45-41-96 0-29-4-34-37-45-21-6-69-32-108-57-128-82-184-89-328-41-165 55-250 40-340-60-20-23-39-41-41-41s-14 16-26 37c-19 33-23 35-37 20-13-13-14-22-3-67 9-37 9-55 2-62-8-8-14-3-22 15-5 15-15 39-20 53-13 32-44 29-48-6-2-13 1-42 8-63 6-21 9-42 5-45-11-11-24 21-31 75-3 29-12 60-20 70-13 17-15 17-29-1-17-22-18-42-5-106 5-25 5-49 0-54-9-9-24 37-42 131-6 34-17 64-25 67-21 8-36-42-29-98 5-44 4-48-9-35-22 22-49 141-41 183 11 58 35 78 99 84 45 3 62 0 90-17 38-24 109-28 125-8 8 9 6 22-5 45-16 33-16 33 18 68 60 62 102 79 204 79 92 0 108-5 202-61 39-23 66-12 71 29 2 15 11 29 23 32 11 4 41 25 67 47 87 76 178 105 339 107 55 1 101-5 142-18zm1-427c79-32 91-34 200-34 108 1 118 3 170 30 104 56 136 45 256-90 62-70 141-120 189-120 23 0 35-7 48-30 10-17 32-37 49-46 29-15 30-18 25-67-9-92-64-237-178-472-61-126-125-260-143-298-23-50-35-65-46-60-8 3-34 8-58 11-139 14-255-97-254-243 0-89 32-155 95-198 17-12 9-30-103-246-104-199-176-328-240-428-8-13-21-23-28-23-15 0-60 63-113 158l-39 71 37 25c21 13 50 37 66 53 74 79 58 232-31 299-46 36-129 44-198 20-26-9-49-16-51-16-4 0-163 326-248 505-47 101-73 146-198 342-67 105-287 542-287 568 0 8 10 20 22 26 31 17 157 136 201 191 21 27 49 51 63 54 15 4 67-9 142-35 182-63 252-57 398 34 121 75 116 75 254 19zm514-1270c9-3 16-10 16-16 0-20-120-258-130-258-18 0-47 79-54 145-6 57-5 62 21 87 43 41 104 59 147 42zm-640-527c19-24 26-46 26-77 0-43 0-43-20-25-16 14-23 16-32 7-14-14-3-28 26-34 18-3 17-6-12-39-45-51-69-56-86-16-12 28-11 34 1 44 21 16 9 46-15 39-15-5-23 2-35 31-26 60-25 63 23 83 68 29 95 26 124-13z"/><path d="m1169 2327c-8-7-23-23-32-37-19-30-11-91 19-139 10-17 36-59 57-94 27-44 50-69 74-81 34-16 37-16 89 8 63 29 73 46 50 89-14 27-107 168-161 245-18 25-69 30-96 9zm95-130c21-39 50-87 63-105 14-18 23-34 22-35-2-2-11-8-21-15-14-11-23-3-71 70-30 46-62 90-71 97-21 18-20 37 2 50 30 18 36 13 76-62z"/><path d="m1806 2304c-13-33 40-90 73-79 36 11 21 58-26 83-29 16-40 15-47-4z"/><path d="m1590 2245c-16-19-6-45 18-45 23 0 56 35 47 49-9 16-51 13-65-4z"/><path d="m730 2230c-11-11-20-33-20-50 0-31 48-128 83-167 20-23 70-31 93-15 35 23 45 107 20 166-31 74-131 111-176 66zm105-65c19-18 25-35 25-69 0-25-4-47-9-50-19-12-100 112-86 134 11 18 45 11 70-15z"/><path d="m2171 2043c-30-37-37-71-18-90 24-24 62-9 82 33 32 69-19 115-64 57z"/><path d="m1675 1977c-65-22-99-43-138-86-38-42-61-101-55-141 4-31 56-58 119-64 24-2 45-4 46-5s-5-17-13-36c-7-19-14-63-14-99 0-59 2-66 31-90 25-21 41-26 86-26 47 0 59 4 83 28 26 27 50 85 50 125 0 10-11 40-25 67l-25 50h69 70l11 42c24 88-11 174-89 217-52 29-148 37-206 18zm191-108c16-16 28-42 31-67 5-41 5-42-22-42-15 0-45-5-66-11-45-14-54-39-38-101 22-83 22-112 2-137-15-18-26-23-45-18-35 9-41 39-32 158 7 110 13 103-88 115l-57 6 15 29c8 16 38 45 67 64 50 35 55 36 129 33 68-3 81-6 104-29z"/><path d="m713 1913c-20-7-15-31 7-43 21-11 60 2 60 20 0 19-42 34-67 23z"/><path d="m998 1802c-26-9-67-31-91-48-107-76-93-231 27-311 40-27 58-33 103-33 151 0 214 60 212 205 0 85-26 135-89 173-61 36-93 39-162 14zm116-73c30-14 58-69 58-113 0-80-50-123-131-112-91 12-115 55-85 151 13 39 26 61 44 70 31 17 81 19 114 4z"/><path d="m1086 1691c-9-14 5-42 18-38 18 6 20 47 2 47-8 0-17-4-20-9z"/><path d="m1017 1654c-9-10 2-24 19-24 8 0 14 7 14 15 0 15-21 21-33 9z"/><path d="m1070 1580c0-11 7-20 15-20s15 9 15 20-7 20-15 20-15-9-15-20z"/><path d="m2181 1741c-21-13 4-41 35-41 29 0 32 25 5 40-23 12-22 12-40 1z"/><path d="m2050 1449c-17-31 13-74 40-59 32 17 23 80-11 80-10 0-23-9-29-21z"/><path d="m1552 1358c-18-18-14-56 7-68 52-27 88 8 57 55-18 27-45 32-64 13z"/><path d="m920 1322c0-20 34-52 56-52 30 0 32 24 2 44-24 17-58 21-58 8z"/><path d="m1365 1280c-16-6-48-26-69-45l-39-36-28 27c-83 79-169-19-140-159 25-123 89-197 168-197 39 0 97 42 118 85 16 35 16 47 1 100-5 16 4 25 47 45 81 40 107 105 65 163-16 22-80 30-123 17zm82-67c8-22-44-66-97-82-34-10-40-16-40-40 0-15 5-42 11-60 10-28 9-35-12-57-27-29-44-30-87-4-57 35-92 149-59 193 11 16 15 16 47-8 41-31 52-31 76-4 59 67 146 101 161 62z"/><path d="m1521 971c-18-17-30-35-26-41 18-29 100 12 93 47-5 29-33 26-67-6z"/><path d="m1611 864c-43-53-46-78-17-138 38-77 86-146 102-146 26 0 71 28 89 56 23 35 12 69-57 171-67 97-78 103-117 57zm65-87c9-18 27-44 41-59 18-18 23-32 18-47-7-22-25-29-25-10 0 7-20 36-46 65-39 46-43 56-34 74 13 25 25 19 46-23z"/><path d="m1455 370c-11-17 15-50 40-50 32 0 38 12 19 38-16 23-48 29-59 12z"/><path d="m1930 1100c0-5 5-10 10-10 6 0 10 5 10 10 0 6-4 10-10 10-5 0-10-4-10-10z"/><path d="m1917 1043c-4-3-7-12-7-20 0-15 26-18 34-4 7 11-18 33-27 24z"/><path d="m1295 620c-8-12 20-24 35-15 6 3 8 11 5 16-8 12-32 12-40-1z"/></g></svg>